 <svg  version="1.0" xmlns="http://www.w3.org/2000/svg"  width="174.000000pt" height="114.000000pt" viewBox="0 0 174.000000 114.000000"  preserveAspectRatio="xMidYMid meet">  <g transform="translate(0.000000,114.000000) scale(0.100000,-0.100000)" fill="#ff7800" stroke="none"> <path d="M463 882 c-6 -4 -58 -6 -115 -6 -95 2 -128 -5 -128 -27 0 -16 39 -30 58 -20 11 6 24 6 35 0 11 -6 23 -6 35 0 11 6 24 6 35 0 11 -6 23 -7 34 -1 11 6 25 6 40 -1 16 -7 26 -7 38 3 12 10 18 10 30 0 8 -6 23 -9 33 -6 11 4 24 0 32 -9 16 -19 34 -19 50 0 15 19 -4 47 -29 43 -9 -1 -27 5 -40 14 -18 13 -29 14 -43 7 -11 -6 -24 -6 -36 0 -10 5 -23 7 -29 3z"/> <path d="M1031 881 c-8 -5 -28 -7 -46 -4 -20 3 -35 0 -43 -10 -7 -8 -22 -13 -32 -10 -32 8 -52 -16 -46 -53 8 -38 10 -350 3 -361 -8 -13 -62 -7 -86 9 -12 9 -31 14 -42 11 -18 -5 -19 1 -19 80 0 63 -4 88 -15 97 -13 10 -19 9 -36 -6 -17 -15 -19 -29 -18 -93 2 -79 16 -111 49 -111 10 0 23 -7 30 -15 9 -11 22 -14 41 -10 20 5 30 2 37 -11 12 -22 -17 -76 -38 -69 -8 2 -22 0 -29 -5 -9 -5 -22 -5 -33 1 -22 12 -58 -5 -58 -26 0 -21 37 -38 57 -26 11 6 24 6 36 -1 14 -7 24 -5 39 9 11 10 28 17 38 15 11 -2 26 7 35 22 14 20 21 24 35 16 39 -21 45 10 47 224 0 113 -3 209 -8 219 -6 10 -7 27 -4 38 5 16 12 19 32 14 14 -3 31 -1 39 6 11 9 18 8 29 -1 12 -10 22 -10 39 -2 17 8 27 7 35 -1 9 -9 16 -8 31 1 15 9 26 10 40 2 13 -7 26 -7 38 -1 11 6 24 6 35 0 11 -6 23 -6 35 0 11 6 24 6 33 1 7 -5 22 -7 32 -4 10 3 27 -2 37 -11 23 -21 50 -13 50 14 0 20 -25 35 -42 25 -5 -3 -17 1 -26 10 -14 12 -39 15 -120 13 -56 -2 -108 0 -114 4 -7 4 -21 3 -31 -3 -13 -7 -22 -7 -30 1 -13 13 -18 13 -36 2z m-121 -171 c0 -33 -4 -60 -10 -60 -6 0 -10 27 -10 60 0 33 4 60 10 60 6 0 10 -27 10 -60z m-210 -140 c0 -33 -4 -60 -10 -60 -6 0 -10 27 -10 60 0 33 4 60 10 60 6 0 10 -27 10 -60z m210 0 c0 -33 -4 -60 -10 -60 -6 0 -10 27 -10 60 0 33 4 60 10 60 6 0 10 -27 10 -60z m0 -140 c0 -33 -4 -60 -10 -60 -6 0 -10 27 -10 60 0 33 4 60 10 60 6 0 10 -27 10 -60z"/> <path d="M156 841 c-14 -15 -15 -24 -6 -40 14 -28 36 -26 56 4 13 20 14 28 4 40 -17 20 -33 19 -54 -4z"/> <path d="M90 770 c-8 -14 -8 -26 0 -40 15 -27 38 -25 52 5 20 44 -29 77 -52 35z"/> <path d="M666 774 c-15 -14 -15 -19 -3 -38 17 -26 36 -27 51 -3 8 12 8 22 0 34 -15 24 -29 26 -48 7z"/> <path d="M1431 776 c-9 -11 -8 -24 5 -55 20 -50 49 -70 71 -48 19 19 12 53 -18 90 -23 30 -41 34 -58 13z m49 -46 c22 -43 24 -50 12 -50 -4 0 -18 20 -30 45 -27 55 -10 60 18 5z"/> <path d="M1165 733 c-9 -9 -29 -16 -43 -17 -24 -1 -27 -5 -30 -41 -15 -205 -7 -264 35 -239 15 9 19 27 21 95 2 52 -2 93 -9 107 -10 17 -10 25 -1 34 19 19 84 19 104 1 17 -15 20 -15 35 0 14 13 14 18 3 32 -8 9 -22 14 -31 12 -10 -3 -26 4 -35 14 -21 23 -28 24 -49 2z m-48 -195 c-2 -18 -4 -4 -4 32 0 36 2 50 4 33 2 -18 2 -48 0 -65z"/> <path d="M371 726 c-7 -8 -20 -12 -30 -9 -27 7 -45 -21 -31 -47 9 -16 9 -25 1 -33 -6 -6 -11 -48 -11 -98 0 -89 12 -118 44 -106 8 3 22 -3 32 -14 22 -24 29 -24 52 1 12 13 25 18 36 14 28 -11 42 22 44 103 2 54 -2 83 -13 99 -9 14 -11 25 -5 29 29 18 -1 62 -33 49 -8 -3 -20 2 -27 11 -16 19 -44 19 -59 1z m81 -54 c10 -10 10 -17 0 -32 -7 -12 -12 -55 -12 -105 0 -78 -1 -85 -17 -77 -10 5 -26 8 -35 7 -22 -4 -28 18 -23 83 3 35 0 63 -9 80 -21 41 -6 61 44 58 22 -1 46 -8 52 -14z m-112 -102 c0 -33 -4 -60 -10 -60 -6 0 -10 27 -10 60 0 33 4 60 10 60 6 0 10 -27 10 -60z m140 0 c0 -33 -4 -60 -10 -60 -6 0 -10 27 -10 60 0 33 4 60 10 60 6 0 10 -27 10 -60z"/> <path d="M90 630 c-12 -22 -9 -168 4 -188 11 -18 34 -15 44 6 14 27 15 172 1 188 -16 20 -36 17 -49 -6z m27 -92 c-2 -18 -4 -4 -4 32 0 36 2 50 4 33 2 -18 2 -48 0 -65z"/> <path d="M1289 634 c-11 -14 -9 -23 12 -64 l26 -48 -20 -32 c-12 -19 -25 -29 -34 -26 -8 3 -22 2 -31 -3 -9 -5 -26 -5 -37 -1 -24 9 -55 -5 -55 -25 0 -21 36 -38 58 -26 11 6 24 6 33 0 20 -13 27 -11 45 10 9 10 24 17 33 14 25 -6 44 22 38 54 -3 18 0 34 10 45 12 14 13 23 4 49 -22 62 -56 84 -82 53z m46 -41 c11 -21 21 -41 23 -45 2 -5 0 -8 -5 -8 -5 0 -19 20 -31 45 -26 54 -14 61 13 8z"/> <path d="M1525 618 c-12 -42 -12 -75 2 -90 13 -14 12 -22 -11 -66 -23 -46 -24 -52 -10 -66 22 -22 29 -20 58 15 26 30 35 82 17 94 -6 3 -9 27 -7 53 3 49 -6 72 -31 72 -7 0 -15 -6 -18 -12z m31 -170 c-35 -58 -52 -61 -20 -4 14 25 30 46 35 46 6 0 -1 -19 -15 -42z"/> <path d="M168 364 c-12 -11 4 -34 24 -34 13 0 18 6 16 17 -3 18 -29 29 -40 17z"/> <path d="M592 358 c-6 -6 -12 -18 -12 -26 0 -9 -7 -11 -20 -7 -12 4 -27 1 -35 -5 -10 -9 -19 -9 -35 0 -16 9 -25 9 -35 0 -10 -8 -20 -8 -32 -2 -11 7 -24 7 -35 1 -11 -6 -25 -6 -36 0 -11 6 -24 6 -36 -1 -12 -7 -25 -7 -41 0 -18 9 -26 7 -39 -7 -15 -16 -15 -19 3 -35 14 -13 24 -15 38 -8 12 7 25 7 36 1 11 -6 23 -6 35 0 11 6 24 6 35 0 11 -6 23 -7 34 -1 11 6 25 6 40 -1 16 -7 26 -7 37 2 11 10 19 9 35 0 17 -11 23 -10 41 6 12 11 31 20 42 20 29 0 46 30 32 53 -14 22 -36 26 -52 10z"/> <path d="M1452 358 c-7 -7 -12 -18 -12 -26 0 -10 -7 -13 -22 -9 -12 4 -28 1 -35 -5 -7 -6 -21 -7 -30 -3 -10 5 -22 7 -28 6 -25 -7 -187 -6 -197 0 -7 4 -20 3 -31 -2 -12 -7 -23 -7 -32 1 -9 8 -20 8 -32 2 -10 -5 -33 -7 -50 -5 -39 6 -55 -19 -29 -45 14 -14 20 -15 37 -4 16 10 24 11 35 1 11 -9 21 -9 38 -1 17 8 27 7 35 -1 9 -9 16 -8 31 1 15 9 26 10 40 2 13 -7 26 -7 38 -1 11 6 24 6 35 0 11 -6 23 -6 35 0 11 6 24 6 35 0 11 -6 23 -6 35 0 11 6 24 6 35 -1 13 -7 25 -5 45 8 15 10 34 17 42 16 23 -4 43 34 30 58 -12 23 -30 26 -48 8z"/> </g> </svg> 